<?xml version="1.0" encoding="UTF-8" standalone="no"?>
<!-- Created with Inkscape (http://www.inkscape.org/) -->

<svg
   version="1.1"
   id="svg1"
   width="6in"
   height="5.566in"
   viewBox="0 0 576 534.33601"
   sodipodi:docname="ministering-mark.svg"
   inkscape:version="1.4 (e7c3feb1, 2024-10-09)"
   xmlns:inkscape="http://www.inkscape.org/namespaces/inkscape"
   xmlns:sodipodi="http://sodipodi.sourceforge.net/DTD/sodipodi-0.dtd"
   xmlns="http://www.w3.org/2000/svg"
   xmlns:svg="http://www.w3.org/2000/svg">
  <defs
     id="defs1" />
  <sodipodi:namedview
     id="namedview1"
     pagecolor="#ffffff"
     bordercolor="#000000"
     borderopacity="0.25"
     inkscape:showpageshadow="2"
     inkscape:pageopacity="0.0"
     inkscape:pagecheckerboard="0"
     inkscape:deskcolor="#d1d1d1"
     inkscape:zoom="0.97553123"
     inkscape:cx="256.27063"
     inkscape:cy="369.0297"
     inkscape:window-width="1728"
     inkscape:window-height="1051"
     inkscape:window-x="0"
     inkscape:window-y="553"
     inkscape:window-maximized="1"
     inkscape:current-layer="g1"
     inkscape:export-bgcolor="#ffffffff"
     inkscape:document-units="in" />
  <g
     inkscape:groupmode="layer"
     inkscape:label="Image"
     id="g1">
    <path
       style="fill:#000000;stroke:#000000;stroke-width:1.00376;stroke-opacity:1"
       d="m 67.728514,531.73141 c -1.88246,-1.88258 -2.10305,-15.48879 -2.10305,-129.71513 V 274.40435 L 41.870412,273.96137 C 19.544183,273.54503 17.771421,273.32141 12.397004,270.2434 0.87153149,263.64261 -3.0421773,247.54075 4.0783853,236.0188 7.6552982,230.23092 42.269011,199.53601 139.81507,115.64965 c 11.08878,-9.53598 29.85005,-25.797379 41.69173,-36.136439 11.84167,-10.33906 32.27341,-28.13354 45.40387,-39.54329 13.13046,-11.409746 27.06341,-23.585211 30.96211,-27.056589 11.69673,-10.4146895 16.60318,-12.40589745 30.58169,-12.41112745 16.2513,-0.0061 15.85587,-0.233658 47.64635,27.42223745 6.34621,5.520845 17.15762,14.856079 24.02536,20.744989 6.86773,5.88891 22.60923,19.59565 34.98111,30.45944 l 22.49433,19.75233 v -25.2766 c 0,-19.79412 0.39849,-25.60734 1.8372,-26.80142 1.29708,-1.07655 12.21512,-1.41982 37.13817,-1.16767 l 35.30096,0.35714 0.66916,59.140109 0.66916,59.14009 38.81106,33.97889 c 27.21363,23.8254 39.51091,35.462 41.1531,38.94214 4.90363,10.39169 1.71226,25.42352 -6.66126,31.37556 -6.2574,4.44785 -13.56477,5.60291 -35.49558,5.61068 l -21.07842,0.007 v 128.43803 c 0,125.61312 -0.0569,128.46849 -2.58864,129.82348 -1.75395,0.93876 -72.7098,1.38549 -220.05679,1.38549 -195.913907,0 -217.676606,-0.20846 -219.571226,-2.10318 z M 499.23868,394.72179 c 0,-114.91851 0.22042,-128.59377 2.10305,-130.47651 1.7737,-1.77379 6.35633,-2.10318 29.26038,-2.10318 h 27.15732 l 3.66763,-3.66783 c 3.22339,-3.22357 3.59297,-4.44469 3.05137,-10.08158 -0.41157,-4.28354 -1.6802,-7.57215 -3.8197,-9.90155 -1.76191,-1.91831 -20.06457,-18.17002 -40.67258,-36.11492 l -37.46912,-32.6271 0.47362,-56.85927 0.47363,-56.859289 H 455.6934 427.9225 l 0.68746,33.4787 c 0.62646,30.508249 0.49818,33.328579 -1.44568,31.786679 -2.2486,-1.7836 -58.73637,-50.706649 -97.7644,-84.671989 -12.6875,-11.041685 -25.28384,-21.280343 -27.99186,-22.752568 -3.37025,-1.832248 -7.45711,-2.676773 -12.95355,-2.676773 -5.48544,0 -9.60051,0.848194 -12.98658,2.676773 -2.72619,1.472225 -18.38161,14.421115 -34.78984,28.775318 -16.40822,14.35419 -48.50542,42.27168 -71.3271,62.038849 -22.82168,19.76717 -49.92533,43.24422 -60.23034,52.17121 -49.903185,43.22999 -92.508104,80.60981 -94.000764,82.47242 -4.723063,5.89362 -4.16466,16.11931 1.117865,20.47074 2.500067,2.0594 6.105366,2.34218 29.862818,2.34218 19.230735,0 27.482425,0.46298 28.625445,1.60606 1.22671,1.22677 1.60598,31.83378 1.60598,129.60044 0,70.3969 0.40505,128.39944 0.9001,128.89452 0.49506,0.49509 95.649076,0.88932 211.453356,0.87608 l 210.55327,-0.0241 z m -241.82725,81.62107 c -4.82338,-2.94117 -7.82913,-7.02254 -9.16077,-12.43898 -0.80035,-3.25538 -1.52692,-3.68056 -6.28965,-3.68056 -3.08217,0 -7.27165,-1.16621 -9.79731,-2.72724 -4.08717,-2.52615 -9.95568,-11.90259 -9.95568,-15.90674 0,-1.0375 -0.8596,-1.39833 -2.1508,-0.90283 -3.49722,1.34209 -12.02223,-1.6295 -16.39559,-5.71505 -2.4871,-2.32343 -4.6759,-6.21619 -5.63339,-10.01897 -1.41737,-5.62916 -1.93804,-6.21916 -5.48844,-6.21916 -12.20923,0 -21.05632,-12.99412 -17.32559,-25.44687 l 1.53177,-5.11287 -14.89402,-14.49924 c -20.74957,-20.19958 -30.85044,-33.18256 -39.39496,-50.63566 -10.02578,-20.47873 -12.77671,-31.02717 -13.61245,-52.19708 -0.5754,-14.57507 -0.24058,-19.2665 2.06286,-28.9049 7.37218,-30.84791 24.4389,-52.99468 50.40739,-65.41163 13.32396,-6.37091 22.0064,-8.40397 36.694,-8.59212 36.13276,-0.46286 69.36441,20.23897 87.6267,54.58752 l 3.30936,6.2244 5.07007,-9.73453 c 7.28966,-13.99613 24.28273,-30.71711 38.88929,-38.26655 15.98779,-8.26332 28.62634,-11.31278 46.55549,-11.23303 11.07108,0.0493 16.87848,0.75408 23.42048,2.84251 23.81488,7.6025 43.34986,24.16497 53.80996,45.62205 8.9678,18.39595 11.06188,27.80412 11.02226,49.52032 -0.0281,15.41267 -0.56172,19.98801 -3.63058,31.13042 -7.896,28.66884 -25.41694,54.5752 -51.78545,76.56965 -9.93629,8.28805 -10.16759,8.6189 -9.67043,13.8324 1.00218,10.50945 -6.23244,19.34651 -17.33094,21.16965 -4.45167,0.73128 -4.94419,1.25669 -5.71871,6.10049 -0.46613,2.91516 -1.82896,6.79827 -3.02852,8.62913 -2.74487,4.18943 -11.10894,8.52819 -16.44027,8.52819 -3.32525,0 -4.06917,0.54999 -4.07326,3.01138 -0.0131,7.90386 -10.12184,17.05033 -18.85411,17.05942 -4.42437,0.005 -4.93095,0.41928 -6.36667,5.21156 -0.93193,3.11066 -3.77724,7.20996 -7.06822,10.18333 -5.32554,4.81157 -5.78631,4.95906 -13.88194,4.44354 -6.52454,-0.41548 -9.42365,-1.33421 -13.12901,-4.16058 -2.6155,-1.99505 -5.27974,-3.62737 -5.92054,-3.62737 -0.64078,0 -3.2405,2.15935 -5.77711,4.79855 -2.53663,2.63919 -6.23831,5.65057 -8.22596,6.69193 -5.16165,2.70429 -14.33825,2.36158 -19.39926,-0.72448 z m 20.56401,-13.77736 c 9.54245,-8.7687 11.36774,-15.22593 6.05325,-21.4142 -3.98504,-4.64022 -9.42224,-2.97472 -17.87051,5.47401 -8.70901,8.70951 -10.13229,13.95811 -5.13912,18.95155 4.42348,4.42372 9.9293,3.4459 16.95638,-3.01136 z m 39.05759,-1.44718 c 2.98799,-2.39754 4.27631,-7.3158 2.77757,-10.60361 -0.75366,-1.65333 -7.04966,-7.52312 -13.9911,-13.04396 -6.94145,-5.52085 -13.00271,-11.40084 -13.46947,-13.06666 -0.94113,-3.35873 1.36398,-7.00914 4.42604,-7.00914 1.08431,0 7.78578,4.69502 14.89215,10.43339 7.10638,5.73837 14.40973,11.45997 16.22967,12.71467 7.32221,5.04808 17.43486,1.14966 17.43486,-6.72113 0,-3.80699 -2.14048,-6.01227 -23.95605,-24.6814 -11.83477,-10.12785 -13.39888,-12.26244 -11.35894,-15.50189 0.8112,-1.2882 2.34829,-2.51457 3.41575,-2.72527 1.06746,-0.2107 10.55903,6.57118 21.09237,15.07085 10.53334,8.49967 20.67088,15.83531 22.52786,16.30141 7.69277,1.93086 13.8484,-4.16579 11.92879,-11.81453 -0.52593,-2.09563 -7.61233,-8.82533 -19.57615,-18.59078 -10.55897,-8.61873 -19.11891,-16.6294 -19.59204,-18.33487 -0.89211,-3.21576 1.34308,-7.00914 4.13002,-7.00914 0.91684,0 9.96998,6.65778 20.1181,14.79507 24.98271,20.03248 27.72063,21.29047 34.58497,15.89068 3.45014,-2.71404 4.4158,-6.7344 2.69481,-11.21945 -1.26891,-3.30692 -66.1797,-56.22574 -73.71301,-60.09488 -6.85505,-3.52079 -12.64274,-2.80841 -19.99502,2.46109 -16.82581,12.05929 -24.24515,15.28278 -35.27683,15.32676 -13.58133,0.0542 -24.08579,-7.426 -24.09341,-17.15677 -0.003,-4.47098 1.43526,-6.22857 18.94365,-23.14175 l 18.94743,-18.30327 -5.00711,-0.93939 c -7.36951,-1.38261 -16.95583,0.14278 -34.08777,5.42406 -26.83935,8.2738 -42.33564,7.40608 -64.36972,-3.60438 -8.95475,-4.4747 -13.7993,-8.1139 -22.76419,-17.10036 -12.52799,-12.55812 -17.54774,-21.13464 -19.9302,-34.0518 -0.80278,-4.3525 -1.71904,-8.17309 -2.03612,-8.49019 -0.31709,-0.3171 -2.24592,4.44858 -4.28629,10.5904 -3.36145,10.11848 -3.70488,12.92623 -3.65784,29.90437 0.0457,16.47262 0.49292,20.19336 3.70039,30.78289 4.72889,15.61256 13.89275,32.87033 24.48267,46.10683 8.47006,10.58686 33.25095,34.86557 35.58672,34.86557 0.68395,0 4.49951,-2.97594 8.47901,-6.61318 5.55263,-5.07507 8.60242,-6.81819 13.11276,-7.49459 10.98813,-1.64786 19.31679,2.63063 22.41334,11.51388 1.06204,3.04676 1.98706,3.85902 3.61042,3.17034 1.2004,-0.50923 5.19375,-1.18193 8.87411,-1.49487 5.12824,-0.43606 7.71057,0.071 11.05331,2.17007 5.76343,3.61925 9.67934,10.28301 9.68552,16.48197 0.005,4.73015 0.24617,5.01896 4.19603,5.01896 3.16404,0 5.62366,1.4327 10.03735,5.84663 5.39112,5.39141 5.84631,6.38395 5.84631,12.7478 0,6.29592 0.32255,7.02379 3.67791,8.29957 8.1553,3.10081 12.44349,10.00796 13.60796,21.9189 0.74615,7.63206 1.02252,8.12808 6.1346,11.00976 5.29801,2.98648 8.76195,2.97578 12.51881,-0.0386 z m -58.17779,-23.56295 c 11.00569,-11.24753 11.6786,-12.26272 11.28327,-17.02238 -0.51376,-6.18534 -5.09654,-9.43489 -11.21965,-7.95561 -5.84026,1.41096 -26.00435,22.45832 -26.00435,27.14347 0,5.05402 4.85417,9.79537 10.02844,9.79537 3.53225,0 6.08951,-1.92222 15.91229,-11.96085 z m -36.68112,-8.06568 c 1.08547,-0.68646 7.86068,-7.13775 15.05602,-14.3362 11.8566,-11.86172 13.08244,-13.55417 13.08244,-18.0621 0,-5.78235 -3.62039,-9.14096 -9.85344,-9.14096 -3.13558,0 -6.52988,2.57016 -17.23371,13.04928 -7.33099,7.17709 -13.8775,14.45997 -14.5478,16.18415 -1.57165,4.04273 0.99847,9.58577 5.50051,11.86307 3.99311,2.01987 5.38073,2.0967 7.99598,0.44276 z m -22.9673,-22.00342 c 4.76959,-2.46658 17.30133,-15.7731 18.95759,-20.12962 2.6605,-6.99804 -3.70237,-14.15926 -10.96178,-12.33716 -3.78247,0.94939 -20.60159,17.19084 -21.8386,21.08854 -1.1769,3.70828 1.57416,9.93465 5.15432,11.66561 3.93117,1.90067 4.49346,1.88208 8.68847,-0.28737 z m 205.94593,-40.74112 c 27.31345,-22.80479 43.98691,-49.08005 50.23267,-79.16028 3.94218,-18.98593 1.92202,-41.26743 -5.18927,-57.2355 l -2.23247,-5.0129 -1.10903,7.92316 c -1.82255,13.02077 -7.79153,23.82693 -19.56078,35.41256 -11.20435,11.02953 -21.73204,17.93255 -33.03669,21.66219 -16.60964,5.47985 -28.35737,4.64495 -52.93937,-3.76242 -11.31711,-3.8706 -16.14973,-4.82721 -24.82818,-4.91466 -16.08335,-0.16209 -25.48457,4.93214 -48.10984,26.06917 -9.56894,8.93952 -17.58595,17.36217 -17.8156,18.71704 -0.55892,3.29757 6.04437,6.63308 13.1315,6.63308 6.34729,0 9.84739,-1.64456 25.0898,-11.78876 9.29081,-6.18325 12.33032,-7.50425 18.43068,-8.01017 12.3033,-1.02034 16.51118,1.71314 68.22861,44.32167 10.30501,8.49002 19.45791,15.47969 20.33979,15.53262 0.88187,0.0529 5.09756,-2.82113 9.36818,-6.3868 z M 236.98577,278.49374 c 17.64826,-5.57421 27.86936,-6.48599 40.97176,-3.6549 10.35235,2.23689 10.6536,2.22614 19.20616,-0.68505 6.38807,-2.17442 11.87825,-2.96491 20.73365,-2.98529 10.60461,-0.0244 13.96509,0.62346 28.10457,5.41834 8.83286,2.99534 18.8991,5.85402 22.36943,6.35264 9.09496,1.30673 24.17753,-2.39762 34.42589,-8.45518 11.18087,-6.60872 24.55,-20.15611 29.16472,-29.55359 3.18053,-6.47687 3.70221,-9.16415 3.67394,-18.92505 -0.0265,-9.16019 -0.64009,-12.61099 -3.14966,-17.71462 -6.8806,-13.99287 -21.8194,-23.73763 -41.71481,-27.2111 -25.5942,-4.4684 -53.28114,4.9134 -72.8629,24.68984 -9.03658,9.12641 -16.7499,21.08505 -20.74707,32.166 -3.80937,10.56031 -4.51894,11.49165 -8.75529,11.49165 -3.47335,0 -4.10246,-0.84648 -7.95761,-10.7071 -11.03725,-28.23079 -33.56217,-49.88201 -59.47315,-57.16628 -10.53951,-2.96295 -28.87517,-3.45323 -39.05124,-1.04423 -17.35148,4.10767 -30.40919,13.27166 -37.09779,26.0355 -3.05084,5.82192 -3.53842,8.39516 -3.56059,18.79115 -0.0227,10.63183 0.4347,12.98791 3.89712,20.0758 4.55694,9.32845 17.05613,22.40213 26.8318,28.06502 3.66574,2.12348 10.5915,5.28486 15.3906,7.02524 12.39993,4.49682 31.4454,3.72549 49.60047,-2.00879 z"
       id="path1" />
  </g>
</svg>
